<?xml version="1.0" encoding="UTF-8" standalone="no"?>
<!DOCTYPE svg PUBLIC "-//W3C//DTD SVG 1.1//EN"
 "http://www.w3.org/Graphics/SVG/1.1/DTD/svg11.dtd">
<!-- Generated by graphviz version 3.0.0 (20220226.1711)
 -->
<!-- Pages: 1 -->
<svg width="1768pt" height="476pt"
 viewBox="0.00 0.00 1768.47 476.00" xmlns="http://www.w3.org/2000/svg" xmlns:xlink="http://www.w3.org/1999/xlink">
<g id="graph0" class="graph" transform="scale(1 1) rotate(0) translate(4 472)">
<polygon fill="white" stroke="transparent" points="-4,4 -4,-472 1764.47,-472 1764.47,4 -4,4"/>
<!-- [root] docker_container.nodered_container (expand) -->
<g id="node1" class="node">
<title>[root] docker_container.nodered_container (expand)</title>
<polygon fill="none" stroke="black" points="686.48,-324 472.48,-324 472.48,-288 686.48,-288 686.48,-324"/>
<text text-anchor="middle" x="579.48" y="-302.3" font-family="Times,serif" font-size="14.00">docker_container.nodered_container</text>
</g>
<!-- [root] null_resource.dockervol (expand) -->
<g id="node3" class="node">
<title>[root] null_resource.dockervol (expand)</title>
<polygon fill="none" stroke="black" points="367.48,-252 219.48,-252 219.48,-216 367.48,-216 367.48,-252"/>
<text text-anchor="middle" x="293.48" y="-230.3" font-family="Times,serif" font-size="14.00">null_resource.dockervol</text>
</g>
<!-- [root] docker_container.nodered_container (expand)&#45;&gt;[root] null_resource.dockervol (expand) -->
<g id="edge2" class="edge">
<title>[root] docker_container.nodered_container (expand)&#45;&gt;[root] null_resource.dockervol (expand)</title>
<path fill="none" stroke="black" d="M509.88,-287.97C468.62,-277.87 416.17,-265.03 373.24,-254.52"/>
<polygon fill="black" stroke="black" points="373.94,-251.09 363.39,-252.11 372.27,-257.89 373.94,-251.09"/>
</g>
<!-- [root] random_string.random (expand) -->
<g id="node9" class="node">
<title>[root] random_string.random (expand)</title>
<polygon fill="none" stroke="black" points="1255.48,-252 1113.48,-252 1113.48,-216 1255.48,-216 1255.48,-252"/>
<text text-anchor="middle" x="1184.48" y="-230.3" font-family="Times,serif" font-size="14.00">random_string.random</text>
</g>
<!-- [root] docker_container.nodered_container (expand)&#45;&gt;[root] random_string.random (expand) -->
<g id="edge3" class="edge">
<title>[root] docker_container.nodered_container (expand)&#45;&gt;[root] random_string.random (expand)</title>
<path fill="none" stroke="black" d="M686.59,-289.15C689.58,-288.76 692.55,-288.37 695.48,-288 838.65,-269.76 1005.93,-252.5 1103.07,-242.88"/>
<polygon fill="black" stroke="black" points="1103.51,-246.35 1113.12,-241.89 1102.82,-239.39 1103.51,-246.35"/>
</g>
<!-- [root] var.int_port -->
<g id="node12" class="node">
<title>[root] var.int_port</title>
<polygon fill="none" stroke="black" points="581.48,-252 507.48,-252 507.48,-216 587.48,-216 587.48,-246 581.48,-252"/>
<polyline fill="none" stroke="black" points="581.48,-252 581.48,-246 "/>
<polyline fill="none" stroke="black" points="587.48,-246 581.48,-246 "/>
<text text-anchor="middle" x="547.48" y="-230.3" font-family="Times,serif" font-size="14.00">var.int_port</text>
</g>
<!-- [root] docker_container.nodered_container (expand)&#45;&gt;[root] var.int_port -->
<g id="edge4" class="edge">
<title>[root] docker_container.nodered_container (expand)&#45;&gt;[root] var.int_port</title>
<path fill="none" stroke="black" d="M571.57,-287.7C567.93,-279.73 563.53,-270.1 559.49,-261.26"/>
<polygon fill="black" stroke="black" points="562.64,-259.74 555.3,-252.1 556.27,-262.65 562.64,-259.74"/>
</g>
<!-- [root] module.image.output.image_out (expand) -->
<g id="node13" class="node">
<title>[root] module.image.output.image_out (expand)</title>
<ellipse fill="none" stroke="black" cx="788.48" cy="-234" rx="182.77" ry="18"/>
<text text-anchor="middle" x="788.48" y="-230.3" font-family="Times,serif" font-size="14.00">[root] module.image.output.image_out (expand)</text>
</g>
<!-- [root] docker_container.nodered_container (expand)&#45;&gt;[root] module.image.output.image_out (expand) -->
<g id="edge1" class="edge">
<title>[root] docker_container.nodered_container (expand)&#45;&gt;[root] module.image.output.image_out (expand)</title>
<path fill="none" stroke="black" d="M630.34,-287.97C660.45,-277.88 698.72,-265.06 730.07,-254.56"/>
<polygon fill="black" stroke="black" points="731.18,-257.88 739.56,-251.39 728.96,-251.24 731.18,-257.88"/>
</g>
<!-- [root] module.image.docker_image.nodered_image (expand) -->
<g id="node2" class="node">
<title>[root] module.image.docker_image.nodered_image (expand)</title>
<polygon fill="none" stroke="black" points="894.48,-180 630.48,-180 630.48,-144 894.48,-144 894.48,-180"/>
<text text-anchor="middle" x="762.48" y="-158.3" font-family="Times,serif" font-size="14.00">module.image.docker_image.nodered_image</text>
</g>
<!-- [root] provider[&quot;registry.terraform.io/kreuzwerker/docker&quot;] -->
<g id="node8" class="node">
<title>[root] provider[&quot;registry.terraform.io/kreuzwerker/docker&quot;]</title>
<polygon fill="none" stroke="black" points="995.48,-108 715.29,-90 995.48,-72 1275.67,-90 995.48,-108"/>
<text text-anchor="middle" x="995.48" y="-86.3" font-family="Times,serif" font-size="14.00">provider[&quot;registry.terraform.io/kreuzwerker/docker&quot;]</text>
</g>
<!-- [root] module.image.docker_image.nodered_image (expand)&#45;&gt;[root] provider[&quot;registry.terraform.io/kreuzwerker/docker&quot;] -->
<g id="edge8" class="edge">
<title>[root] module.image.docker_image.nodered_image (expand)&#45;&gt;[root] provider[&quot;registry.terraform.io/kreuzwerker/docker&quot;]</title>
<path fill="none" stroke="black" d="M819.18,-143.97C855.5,-133.05 902.47,-118.94 938.79,-108.03"/>
<polygon fill="black" stroke="black" points="940.16,-111.27 948.73,-105.04 938.15,-104.57 940.16,-111.27"/>
</g>
<!-- [root] module.image.var.image_in (expand) -->
<g id="node16" class="node">
<title>[root] module.image.var.image_in (expand)</title>
<ellipse fill="none" stroke="black" cx="530.48" cy="-90" rx="167.07" ry="18"/>
<text text-anchor="middle" x="530.48" y="-86.3" font-family="Times,serif" font-size="14.00">[root] module.image.var.image_in (expand)</text>
</g>
<!-- [root] module.image.docker_image.nodered_image (expand)&#45;&gt;[root] module.image.var.image_in (expand) -->
<g id="edge7" class="edge">
<title>[root] module.image.docker_image.nodered_image (expand)&#45;&gt;[root] module.image.var.image_in (expand)</title>
<path fill="none" stroke="black" d="M706.02,-143.97C672.06,-133.72 628.76,-120.65 593.66,-110.06"/>
<polygon fill="black" stroke="black" points="594.58,-106.68 583.99,-107.15 592.56,-113.39 594.58,-106.68"/>
</g>
<!-- [root] provider[&quot;registry.terraform.io/hashicorp/null&quot;] -->
<g id="node6" class="node">
<title>[root] provider[&quot;registry.terraform.io/hashicorp/null&quot;]</title>
<polygon fill="none" stroke="black" points="293.48,-180 40.94,-162 293.48,-144 546.02,-162 293.48,-180"/>
<text text-anchor="middle" x="293.48" y="-158.3" font-family="Times,serif" font-size="14.00">provider[&quot;registry.terraform.io/hashicorp/null&quot;]</text>
</g>
<!-- [root] null_resource.dockervol (expand)&#45;&gt;[root] provider[&quot;registry.terraform.io/hashicorp/null&quot;] -->
<g id="edge12" class="edge">
<title>[root] null_resource.dockervol (expand)&#45;&gt;[root] provider[&quot;registry.terraform.io/hashicorp/null&quot;]</title>
<path fill="none" stroke="black" d="M293.48,-215.7C293.48,-207.98 293.48,-198.71 293.48,-190.11"/>
<polygon fill="black" stroke="black" points="296.98,-190.1 293.48,-180.1 289.98,-190.1 296.98,-190.1"/>
</g>
<!-- [root] output.container&#45;name -->
<g id="node4" class="node">
<title>[root] output.container&#45;name</title>
<polygon fill="none" stroke="black" points="451.48,-396 317.48,-396 317.48,-360 457.48,-360 457.48,-390 451.48,-396"/>
<polyline fill="none" stroke="black" points="451.48,-396 451.48,-390 "/>
<polyline fill="none" stroke="black" points="457.48,-390 451.48,-390 "/>
<text text-anchor="middle" x="387.48" y="-374.3" font-family="Times,serif" font-size="14.00">output.container&#45;name</text>
</g>
<!-- [root] output.container&#45;name&#45;&gt;[root] docker_container.nodered_container (expand) -->
<g id="edge13" class="edge">
<title>[root] output.container&#45;name&#45;&gt;[root] docker_container.nodered_container (expand)</title>
<path fill="none" stroke="black" d="M434.45,-359.88C461.16,-350.14 494.8,-337.87 522.95,-327.61"/>
<polygon fill="black" stroke="black" points="524.47,-330.78 532.66,-324.07 522.07,-324.21 524.47,-330.78"/>
</g>
<!-- [root] output.ip&#45;address -->
<g id="node5" class="node">
<title>[root] output.ip&#45;address</title>
<polygon fill="none" stroke="black" points="579.48,-396 475.48,-396 475.48,-360 585.48,-360 585.48,-390 579.48,-396"/>
<polyline fill="none" stroke="black" points="579.48,-396 579.48,-390 "/>
<polyline fill="none" stroke="black" points="585.48,-390 579.48,-390 "/>
<text text-anchor="middle" x="530.48" y="-374.3" font-family="Times,serif" font-size="14.00">output.ip&#45;address</text>
</g>
<!-- [root] output.ip&#45;address&#45;&gt;[root] docker_container.nodered_container (expand) -->
<g id="edge14" class="edge">
<title>[root] output.ip&#45;address&#45;&gt;[root] docker_container.nodered_container (expand)</title>
<path fill="none" stroke="black" d="M542.59,-359.7C548.35,-351.47 555.34,-341.48 561.69,-332.42"/>
<polygon fill="black" stroke="black" points="564.64,-334.3 567.51,-324.1 558.9,-330.29 564.64,-334.3"/>
</g>
<!-- [root] provider[&quot;registry.terraform.io/hashicorp/random&quot;] -->
<g id="node7" class="node">
<title>[root] provider[&quot;registry.terraform.io/hashicorp/random&quot;]</title>
<polygon fill="none" stroke="black" points="1184.48,-180 912.34,-162 1184.48,-144 1456.62,-162 1184.48,-180"/>
<text text-anchor="middle" x="1184.48" y="-158.3" font-family="Times,serif" font-size="14.00">provider[&quot;registry.terraform.io/hashicorp/random&quot;]</text>
</g>
<!-- [root] random_string.random (expand)&#45;&gt;[root] provider[&quot;registry.terraform.io/hashicorp/random&quot;] -->
<g id="edge19" class="edge">
<title>[root] random_string.random (expand)&#45;&gt;[root] provider[&quot;registry.terraform.io/hashicorp/random&quot;]</title>
<path fill="none" stroke="black" d="M1184.48,-215.7C1184.48,-207.98 1184.48,-198.71 1184.48,-190.11"/>
<polygon fill="black" stroke="black" points="1187.98,-190.1 1184.48,-180.1 1180.98,-190.1 1187.98,-190.1"/>
</g>
<!-- [root] local.container_count (expand) -->
<g id="node14" class="node">
<title>[root] local.container_count (expand)</title>
<ellipse fill="none" stroke="black" cx="1617.48" cy="-162" rx="142.97" ry="18"/>
<text text-anchor="middle" x="1617.48" y="-158.3" font-family="Times,serif" font-size="14.00">[root] local.container_count (expand)</text>
</g>
<!-- [root] random_string.random (expand)&#45;&gt;[root] local.container_count (expand) -->
<g id="edge18" class="edge">
<title>[root] random_string.random (expand)&#45;&gt;[root] local.container_count (expand)</title>
<path fill="none" stroke="black" d="M1255.5,-221.52C1328.55,-209.71 1442.73,-191.25 1523.29,-178.23"/>
<polygon fill="black" stroke="black" points="1524.12,-181.64 1533.43,-176.59 1523,-174.73 1524.12,-181.64"/>
</g>
<!-- [root] var.ext_port -->
<g id="node10" class="node">
<title>[root] var.ext_port</title>
<polygon fill="none" stroke="black" points="1652.48,-108 1576.48,-108 1576.48,-72 1658.48,-72 1658.48,-102 1652.48,-108"/>
<polyline fill="none" stroke="black" points="1652.48,-108 1652.48,-102 "/>
<polyline fill="none" stroke="black" points="1658.48,-102 1652.48,-102 "/>
<text text-anchor="middle" x="1617.48" y="-86.3" font-family="Times,serif" font-size="14.00">var.ext_port</text>
</g>
<!-- [root] var.image -->
<g id="node11" class="node">
<title>[root] var.image</title>
<polygon fill="none" stroke="black" points="473.98,-36 408.98,-36 408.98,0 479.98,0 479.98,-30 473.98,-36"/>
<polyline fill="none" stroke="black" points="473.98,-36 473.98,-30 "/>
<polyline fill="none" stroke="black" points="479.98,-30 473.98,-30 "/>
<text text-anchor="middle" x="444.48" y="-14.3" font-family="Times,serif" font-size="14.00">var.image</text>
</g>
<!-- [root] module.image.output.image_out (expand)&#45;&gt;[root] module.image.docker_image.nodered_image (expand) -->
<g id="edge9" class="edge">
<title>[root] module.image.output.image_out (expand)&#45;&gt;[root] module.image.docker_image.nodered_image (expand)</title>
<path fill="none" stroke="black" d="M782.05,-215.7C779.12,-207.81 775.59,-198.3 772.34,-189.55"/>
<polygon fill="black" stroke="black" points="775.6,-188.26 768.83,-180.1 769.03,-190.7 775.6,-188.26"/>
</g>
<!-- [root] local.container_count (expand)&#45;&gt;[root] var.ext_port -->
<g id="edge5" class="edge">
<title>[root] local.container_count (expand)&#45;&gt;[root] var.ext_port</title>
<path fill="none" stroke="black" d="M1617.48,-143.7C1617.48,-135.98 1617.48,-126.71 1617.48,-118.11"/>
<polygon fill="black" stroke="black" points="1620.98,-118.1 1617.48,-108.1 1613.98,-118.1 1620.98,-118.1"/>
</g>
<!-- [root] module.image (close) -->
<g id="node15" class="node">
<title>[root] module.image (close)</title>
<ellipse fill="none" stroke="black" cx="814.48" cy="-306" rx="110.48" ry="18"/>
<text text-anchor="middle" x="814.48" y="-302.3" font-family="Times,serif" font-size="14.00">[root] module.image (close)</text>
</g>
<!-- [root] module.image (close)&#45;&gt;[root] module.image.output.image_out (expand) -->
<g id="edge6" class="edge">
<title>[root] module.image (close)&#45;&gt;[root] module.image.output.image_out (expand)</title>
<path fill="none" stroke="black" d="M808.05,-287.7C805.12,-279.81 801.59,-270.3 798.34,-261.55"/>
<polygon fill="black" stroke="black" points="801.6,-260.26 794.83,-252.1 795.03,-262.7 801.6,-260.26"/>
</g>
<!-- [root] module.image.var.image_in (expand)&#45;&gt;[root] var.image -->
<g id="edge11" class="edge">
<title>[root] module.image.var.image_in (expand)&#45;&gt;[root] var.image</title>
<path fill="none" stroke="black" d="M509.66,-72.05C498.76,-63.18 485.23,-52.17 473.33,-42.48"/>
<polygon fill="black" stroke="black" points="475.37,-39.63 465.4,-36.03 470.95,-45.06 475.37,-39.63"/>
</g>
<!-- [root] module.image (expand) -->
<g id="node17" class="node">
<title>[root] module.image (expand)</title>
<ellipse fill="none" stroke="black" cx="616.48" cy="-18" rx="118.08" ry="18"/>
<text text-anchor="middle" x="616.48" y="-14.3" font-family="Times,serif" font-size="14.00">[root] module.image (expand)</text>
</g>
<!-- [root] module.image.var.image_in (expand)&#45;&gt;[root] module.image (expand) -->
<g id="edge10" class="edge">
<title>[root] module.image.var.image_in (expand)&#45;&gt;[root] module.image (expand)</title>
<path fill="none" stroke="black" d="M551.3,-72.05C562.28,-63.11 575.93,-52.01 587.89,-42.27"/>
<polygon fill="black" stroke="black" points="590.31,-44.82 595.85,-35.79 585.89,-39.39 590.31,-44.82"/>
</g>
<!-- [root] provider[&quot;registry.terraform.io/hashicorp/null&quot;] (close) -->
<g id="node18" class="node">
<title>[root] provider[&quot;registry.terraform.io/hashicorp/null&quot;] (close)</title>
<ellipse fill="none" stroke="black" cx="227.48" cy="-306" rx="227.46" ry="18"/>
<text text-anchor="middle" x="227.48" y="-302.3" font-family="Times,serif" font-size="14.00">[root] provider[&quot;registry.terraform.io/hashicorp/null&quot;] (close)</text>
</g>
<!-- [root] provider[&quot;registry.terraform.io/hashicorp/null&quot;] (close)&#45;&gt;[root] null_resource.dockervol (expand) -->
<g id="edge15" class="edge">
<title>[root] provider[&quot;registry.terraform.io/hashicorp/null&quot;] (close)&#45;&gt;[root] null_resource.dockervol (expand)</title>
<path fill="none" stroke="black" d="M243.79,-287.7C251.79,-279.22 261.55,-268.86 270.3,-259.58"/>
<polygon fill="black" stroke="black" points="273.04,-261.78 277.35,-252.1 267.95,-256.98 273.04,-261.78"/>
</g>
<!-- [root] provider[&quot;registry.terraform.io/hashicorp/random&quot;] (close) -->
<g id="node19" class="node">
<title>[root] provider[&quot;registry.terraform.io/hashicorp/random&quot;] (close)</title>
<ellipse fill="none" stroke="black" cx="1184.48" cy="-306" rx="241.26" ry="18"/>
<text text-anchor="middle" x="1184.48" y="-302.3" font-family="Times,serif" font-size="14.00">[root] provider[&quot;registry.terraform.io/hashicorp/random&quot;] (close)</text>
</g>
<!-- [root] provider[&quot;registry.terraform.io/hashicorp/random&quot;] (close)&#45;&gt;[root] random_string.random (expand) -->
<g id="edge16" class="edge">
<title>[root] provider[&quot;registry.terraform.io/hashicorp/random&quot;] (close)&#45;&gt;[root] random_string.random (expand)</title>
<path fill="none" stroke="black" d="M1184.48,-287.7C1184.48,-279.98 1184.48,-270.71 1184.48,-262.11"/>
<polygon fill="black" stroke="black" points="1187.98,-262.1 1184.48,-252.1 1180.98,-262.1 1187.98,-262.1"/>
</g>
<!-- [root] provider[&quot;registry.terraform.io/kreuzwerker/docker&quot;] (close) -->
<g id="node20" class="node">
<title>[root] provider[&quot;registry.terraform.io/kreuzwerker/docker&quot;] (close)</title>
<ellipse fill="none" stroke="black" cx="850.48" cy="-378" rx="246.96" ry="18"/>
<text text-anchor="middle" x="850.48" y="-374.3" font-family="Times,serif" font-size="14.00">[root] provider[&quot;registry.terraform.io/kreuzwerker/docker&quot;] (close)</text>
</g>
<!-- [root] provider[&quot;registry.terraform.io/kreuzwerker/docker&quot;] (close)&#45;&gt;[root] docker_container.nodered_container (expand) -->
<g id="edge17" class="edge">
<title>[root] provider[&quot;registry.terraform.io/kreuzwerker/docker&quot;] (close)&#45;&gt;[root] docker_container.nodered_container (expand)</title>
<path fill="none" stroke="black" d="M786.94,-360.59C747.55,-350.41 696.72,-337.28 655.24,-326.57"/>
<polygon fill="black" stroke="black" points="656.01,-323.15 645.45,-324.04 654.26,-329.93 656.01,-323.15"/>
</g>
<!-- [root] root -->
<g id="node21" class="node">
<title>[root] root</title>
<ellipse fill="none" stroke="black" cx="690.48" cy="-450" rx="47.39" ry="18"/>
<text text-anchor="middle" x="690.48" y="-446.3" font-family="Times,serif" font-size="14.00">[root] root</text>
</g>
<!-- [root] root&#45;&gt;[root] output.container&#45;name -->
<g id="edge21" class="edge">
<title>[root] root&#45;&gt;[root] output.container&#45;name</title>
<path fill="none" stroke="black" d="M650.87,-439.85C604.54,-429.15 526.68,-411.16 467.59,-397.51"/>
<polygon fill="black" stroke="black" points="468.07,-394.03 457.54,-395.19 466.49,-400.85 468.07,-394.03"/>
</g>
<!-- [root] root&#45;&gt;[root] output.ip&#45;address -->
<g id="edge22" class="edge">
<title>[root] root&#45;&gt;[root] output.ip&#45;address</title>
<path fill="none" stroke="black" d="M660.39,-435.83C637.49,-425.82 605.51,-411.83 579.01,-400.23"/>
<polygon fill="black" stroke="black" points="580.09,-396.88 569.52,-396.08 577.28,-403.3 580.09,-396.88"/>
</g>
<!-- [root] root&#45;&gt;[root] module.image (close) -->
<g id="edge20" class="edge">
<title>[root] root&#45;&gt;[root] module.image (close)</title>
<path fill="none" stroke="black" d="M737.26,-446.47C840.84,-440.39 1082.36,-423.39 1106.48,-396 1117.05,-383.99 1116.73,-372.28 1106.48,-360 1099.85,-352.05 986.46,-333.2 902.97,-320.26"/>
<polygon fill="black" stroke="black" points="903.36,-316.78 892.94,-318.71 902.29,-323.7 903.36,-316.78"/>
</g>
<!-- [root] root&#45;&gt;[root] provider[&quot;registry.terraform.io/hashicorp/null&quot;] (close) -->
<g id="edge23" class="edge">
<title>[root] root&#45;&gt;[root] provider[&quot;registry.terraform.io/hashicorp/null&quot;] (close)</title>
<path fill="none" stroke="black" d="M643.88,-446.49C555.19,-441.07 365.86,-426.25 308.48,-396 280.66,-381.34 257.56,-353.15 243.24,-332.42"/>
<polygon fill="black" stroke="black" points="246.11,-330.42 237.65,-324.05 240.29,-334.31 246.11,-330.42"/>
</g>
<!-- [root] root&#45;&gt;[root] provider[&quot;registry.terraform.io/hashicorp/random&quot;] (close) -->
<g id="edge24" class="edge">
<title>[root] root&#45;&gt;[root] provider[&quot;registry.terraform.io/hashicorp/random&quot;] (close)</title>
<path fill="none" stroke="black" d="M737.72,-448.11C836.39,-445.46 1060.48,-435.2 1124.48,-396 1148.08,-381.55 1164.48,-353.92 1174.11,-333.26"/>
<polygon fill="black" stroke="black" points="1177.33,-334.61 1178.17,-324.05 1170.93,-331.79 1177.33,-334.61"/>
</g>
<!-- [root] root&#45;&gt;[root] provider[&quot;registry.terraform.io/kreuzwerker/docker&quot;] (close) -->
<g id="edge25" class="edge">
<title>[root] root&#45;&gt;[root] provider[&quot;registry.terraform.io/kreuzwerker/docker&quot;] (close)</title>
<path fill="none" stroke="black" d="M720.57,-435.83C743.73,-425.7 776.18,-411.5 802.86,-399.84"/>
<polygon fill="black" stroke="black" points="804.27,-403.04 812.03,-395.82 801.46,-396.63 804.27,-403.04"/>
</g>
</g>
</svg>
